<?xml version="1.0" standalone="no"?>
<!DOCTYPE svg PUBLIC "-//W3C//DTD SVG 20010904//EN"
 "http://www.w3.org/TR/2001/REC-SVG-20010904/DTD/svg10.dtd">
<svg version="1.0" xmlns="http://www.w3.org/2000/svg"
 width="500.000000pt" height="500.000000pt" viewBox="0 0 500.000000 500.000000"
 preserveAspectRatio="xMidYMid meet">
<metadata>
Created by potrace 1.11, written by Peter Selinger 2001-2013
</metadata>
<g transform="translate(0.000000,500.000000) scale(0.100000,-0.100000)"
fill="#000000" stroke="none">
<path d="M2438 4528 c-91 -73 -192 -135 -210 -130 -5 1 -8 -2 -8 -8 0 -5 -9
-10 -20 -10 -11 0 -20 -5 -20 -12 0 -6 -3 -9 -6 -5 -3 3 -25 -1 -47 -10 -46
-16 -69 -22 -107 -28 -14 -2 -41 -7 -60 -10 -42 -8 -213 -9 -255 -1 -16 3 -55
8 -85 11 -73 8 -192 38 -315 81 -56 19 -108 34 -118 34 -9 0 -29 -12 -45 -27
-16 -16 -53 -51 -83 -79 -52 -49 -285 -291 -407 -424 l-60 -64 21 -31 c12 -16
25 -31 29 -33 4 -2 8 -9 8 -16 0 -7 8 -21 18 -32 9 -10 23 -30 30 -44 7 -14
26 -47 42 -75 16 -27 39 -75 51 -105 23 -61 23 -59 43 -150 25 -116 9 -399
-29 -521 -4 -10 -8 -29 -9 -42 -2 -12 -6 -29 -9 -37 -5 -14 -29 -98 -31 -110
-1 -3 -4 -9 -7 -15 -14 -22 -104 -311 -115 -368 -2 -10 -5 -26 -8 -35 -3 -9
-8 -30 -11 -47 -2 -16 -10 -56 -16 -88 -16 -92 -19 -132 -23 -297 -4 -164 8
-267 44 -400 12 -41 22 -79 23 -85 2 -5 9 -20 15 -32 7 -13 10 -23 7 -23 -8 0
66 -141 108 -204 112 -167 287 -315 480 -406 184 -86 607 -232 947 -325 240
-66 299 -74 398 -50 12 3 32 7 45 11 12 3 33 7 47 10 14 3 74 19 134 35 59 17
115 32 125 34 9 2 32 9 51 15 19 6 44 13 55 15 42 9 445 144 535 180 166 65
281 130 385 215 56 46 165 158 165 169 0 6 4 11 9 11 12 0 100 139 133 210 14
30 37 87 51 125 22 61 31 98 52 205 28 137 24 362 -9 590 -3 20 -25 126 -40
195 -7 28 -50 175 -72 245 -3 8 -5 16 -4 18 0 1 -7 16 -15 32 -9 17 -13 30
-10 30 3 0 1 8 -4 18 -6 11 -12 30 -15 43 -2 13 -11 53 -21 88 -9 35 -18 78
-21 95 -3 17 -7 42 -9 56 -22 136 -23 308 -1 405 1 6 6 26 10 45 11 46 67 183
79 191 5 3 9 10 9 15 1 11 37 69 100 162 l50 73 -35 42 c-19 23 -54 63 -78 88
-24 26 -66 71 -93 100 -159 176 -320 338 -329 332 -5 -3 -7 -1 -4 4 7 11 -30
40 -48 38 -5 0 -55 -15 -110 -32 -220 -70 -325 -87 -520 -87 -132 0 -178 6
-270 34 -133 41 -238 104 -338 202 -52 51 -80 50 -149 -4z"/>
</g>
</svg>
